<mxfile host="app.diagrams.net" modified="2022-07-22T09:06:04.415Z" agent="5.0 (Macintosh; Intel Mac OS X 10_15_7) AppleWebKit/605.1.15 (KHTML, like Gecko) Version/15.5 Safari/605.1.15" etag="uhL8yHKOqhf7UelmUvfF" version="20.1.1" type="github">
  <diagram id="C5RBs43oDa-KdzZeNtuy" name="Page-1">
    <mxGraphModel dx="1006" dy="714" grid="1" gridSize="10" guides="1" tooltips="1" connect="1" arrows="1" fold="1" page="1" pageScale="1" pageWidth="827" pageHeight="1169" math="0" shadow="0">
      <root>
        <mxCell id="WIyWlLk6GJQsqaUBKTNV-0" />
        <mxCell id="WIyWlLk6GJQsqaUBKTNV-1" parent="WIyWlLk6GJQsqaUBKTNV-0" />
        <mxCell id="_plOYLPViJ4alJlIMXHO-2" value="" style="edgeStyle=orthogonalEdgeStyle;rounded=0;orthogonalLoop=1;jettySize=auto;html=1;" edge="1" parent="WIyWlLk6GJQsqaUBKTNV-1" source="_plOYLPViJ4alJlIMXHO-0" target="_plOYLPViJ4alJlIMXHO-1">
          <mxGeometry relative="1" as="geometry" />
        </mxCell>
        <mxCell id="_plOYLPViJ4alJlIMXHO-11" value="" style="edgeStyle=orthogonalEdgeStyle;rounded=0;orthogonalLoop=1;jettySize=auto;html=1;" edge="1" parent="WIyWlLk6GJQsqaUBKTNV-1" source="_plOYLPViJ4alJlIMXHO-0" target="_plOYLPViJ4alJlIMXHO-10">
          <mxGeometry relative="1" as="geometry" />
        </mxCell>
        <mxCell id="_plOYLPViJ4alJlIMXHO-13" value="" style="edgeStyle=orthogonalEdgeStyle;rounded=0;orthogonalLoop=1;jettySize=auto;html=1;" edge="1" parent="WIyWlLk6GJQsqaUBKTNV-1" source="_plOYLPViJ4alJlIMXHO-0" target="_plOYLPViJ4alJlIMXHO-12">
          <mxGeometry relative="1" as="geometry" />
        </mxCell>
        <mxCell id="_plOYLPViJ4alJlIMXHO-0" value="Üniversite" style="rounded=0;whiteSpace=wrap;html=1;" vertex="1" parent="WIyWlLk6GJQsqaUBKTNV-1">
          <mxGeometry x="370" y="130" width="120" height="60" as="geometry" />
        </mxCell>
        <mxCell id="_plOYLPViJ4alJlIMXHO-4" value="" style="edgeStyle=orthogonalEdgeStyle;rounded=0;orthogonalLoop=1;jettySize=auto;html=1;" edge="1" parent="WIyWlLk6GJQsqaUBKTNV-1" source="_plOYLPViJ4alJlIMXHO-1" target="_plOYLPViJ4alJlIMXHO-3">
          <mxGeometry relative="1" as="geometry" />
        </mxCell>
        <mxCell id="_plOYLPViJ4alJlIMXHO-6" value="" style="edgeStyle=orthogonalEdgeStyle;rounded=0;orthogonalLoop=1;jettySize=auto;html=1;" edge="1" parent="WIyWlLk6GJQsqaUBKTNV-1" source="_plOYLPViJ4alJlIMXHO-1" target="_plOYLPViJ4alJlIMXHO-5">
          <mxGeometry relative="1" as="geometry" />
        </mxCell>
        <mxCell id="_plOYLPViJ4alJlIMXHO-1" value="Çalışan" style="whiteSpace=wrap;html=1;rounded=0;" vertex="1" parent="WIyWlLk6GJQsqaUBKTNV-1">
          <mxGeometry x="570" y="130" width="120" height="60" as="geometry" />
        </mxCell>
        <mxCell id="_plOYLPViJ4alJlIMXHO-9" style="edgeStyle=orthogonalEdgeStyle;rounded=0;orthogonalLoop=1;jettySize=auto;html=1;" edge="1" parent="WIyWlLk6GJQsqaUBKTNV-1" source="_plOYLPViJ4alJlIMXHO-3" target="_plOYLPViJ4alJlIMXHO-7">
          <mxGeometry relative="1" as="geometry" />
        </mxCell>
        <mxCell id="_plOYLPViJ4alJlIMXHO-3" value="Memur" style="whiteSpace=wrap;html=1;rounded=0;" vertex="1" parent="WIyWlLk6GJQsqaUBKTNV-1">
          <mxGeometry x="690" y="250" width="120" height="60" as="geometry" />
        </mxCell>
        <mxCell id="_plOYLPViJ4alJlIMXHO-8" value="" style="edgeStyle=orthogonalEdgeStyle;rounded=0;orthogonalLoop=1;jettySize=auto;html=1;" edge="1" parent="WIyWlLk6GJQsqaUBKTNV-1" source="_plOYLPViJ4alJlIMXHO-5" target="_plOYLPViJ4alJlIMXHO-7">
          <mxGeometry relative="1" as="geometry" />
        </mxCell>
        <mxCell id="_plOYLPViJ4alJlIMXHO-5" value="Profesör" style="whiteSpace=wrap;html=1;rounded=0;" vertex="1" parent="WIyWlLk6GJQsqaUBKTNV-1">
          <mxGeometry x="500" y="250" width="120" height="60" as="geometry" />
        </mxCell>
        <mxCell id="_plOYLPViJ4alJlIMXHO-14" style="edgeStyle=orthogonalEdgeStyle;rounded=0;orthogonalLoop=1;jettySize=auto;html=1;exitX=0;exitY=0.5;exitDx=0;exitDy=0;" edge="1" parent="WIyWlLk6GJQsqaUBKTNV-1" source="_plOYLPViJ4alJlIMXHO-7" target="_plOYLPViJ4alJlIMXHO-12">
          <mxGeometry relative="1" as="geometry" />
        </mxCell>
        <mxCell id="_plOYLPViJ4alJlIMXHO-7" value="Ofis" style="whiteSpace=wrap;html=1;rounded=0;" vertex="1" parent="WIyWlLk6GJQsqaUBKTNV-1">
          <mxGeometry x="590" y="390" width="120" height="60" as="geometry" />
        </mxCell>
        <mxCell id="_plOYLPViJ4alJlIMXHO-10" value="Sınıf" style="whiteSpace=wrap;html=1;rounded=0;" vertex="1" parent="WIyWlLk6GJQsqaUBKTNV-1">
          <mxGeometry x="170" y="130" width="120" height="60" as="geometry" />
        </mxCell>
        <mxCell id="_plOYLPViJ4alJlIMXHO-12" value="Departman" style="whiteSpace=wrap;html=1;rounded=0;" vertex="1" parent="WIyWlLk6GJQsqaUBKTNV-1">
          <mxGeometry x="280" y="260" width="120" height="60" as="geometry" />
        </mxCell>
        <mxCell id="_plOYLPViJ4alJlIMXHO-15" value="1..*" style="text;html=1;align=center;verticalAlign=middle;resizable=0;points=[];autosize=1;strokeColor=none;fillColor=none;" vertex="1" parent="WIyWlLk6GJQsqaUBKTNV-1">
          <mxGeometry x="280" y="135" width="40" height="30" as="geometry" />
        </mxCell>
        <mxCell id="_plOYLPViJ4alJlIMXHO-16" value="1" style="text;html=1;align=center;verticalAlign=middle;resizable=0;points=[];autosize=1;strokeColor=none;fillColor=none;" vertex="1" parent="WIyWlLk6GJQsqaUBKTNV-1">
          <mxGeometry x="345" y="135" width="30" height="30" as="geometry" />
        </mxCell>
        <mxCell id="_plOYLPViJ4alJlIMXHO-17" value="1..*" style="text;html=1;align=center;verticalAlign=middle;resizable=0;points=[];autosize=1;strokeColor=none;fillColor=none;" vertex="1" parent="WIyWlLk6GJQsqaUBKTNV-1">
          <mxGeometry x="540" y="135" width="40" height="30" as="geometry" />
        </mxCell>
        <mxCell id="_plOYLPViJ4alJlIMXHO-18" value="1" style="text;html=1;align=center;verticalAlign=middle;resizable=0;points=[];autosize=1;strokeColor=none;fillColor=none;" vertex="1" parent="WIyWlLk6GJQsqaUBKTNV-1">
          <mxGeometry x="485" y="135" width="30" height="30" as="geometry" />
        </mxCell>
        <mxCell id="_plOYLPViJ4alJlIMXHO-19" value="1..*" style="text;html=1;align=center;verticalAlign=middle;resizable=0;points=[];autosize=1;strokeColor=none;fillColor=none;" vertex="1" parent="WIyWlLk6GJQsqaUBKTNV-1">
          <mxGeometry x="340" y="235" width="40" height="30" as="geometry" />
        </mxCell>
        <mxCell id="_plOYLPViJ4alJlIMXHO-20" value="1" style="text;html=1;align=center;verticalAlign=middle;resizable=0;points=[];autosize=1;strokeColor=none;fillColor=none;" vertex="1" parent="WIyWlLk6GJQsqaUBKTNV-1">
          <mxGeometry x="425" y="185" width="30" height="30" as="geometry" />
        </mxCell>
        <mxCell id="_plOYLPViJ4alJlIMXHO-21" value="1..*" style="text;html=1;align=center;verticalAlign=middle;resizable=0;points=[];autosize=1;strokeColor=none;fillColor=none;" vertex="1" parent="WIyWlLk6GJQsqaUBKTNV-1">
          <mxGeometry x="560" y="395" width="40" height="30" as="geometry" />
        </mxCell>
        <mxCell id="_plOYLPViJ4alJlIMXHO-22" value="1" style="text;html=1;align=center;verticalAlign=middle;resizable=0;points=[];autosize=1;strokeColor=none;fillColor=none;" vertex="1" parent="WIyWlLk6GJQsqaUBKTNV-1">
          <mxGeometry x="345" y="315" width="30" height="30" as="geometry" />
        </mxCell>
        <mxCell id="_plOYLPViJ4alJlIMXHO-23" value="1" style="text;html=1;align=center;verticalAlign=middle;resizable=0;points=[];autosize=1;strokeColor=none;fillColor=none;" vertex="1" parent="WIyWlLk6GJQsqaUBKTNV-1">
          <mxGeometry x="605" y="185" width="30" height="30" as="geometry" />
        </mxCell>
        <mxCell id="_plOYLPViJ4alJlIMXHO-25" value="1..*" style="text;html=1;align=center;verticalAlign=middle;resizable=0;points=[];autosize=1;strokeColor=none;fillColor=none;" vertex="1" parent="WIyWlLk6GJQsqaUBKTNV-1">
          <mxGeometry x="520" y="220" width="40" height="30" as="geometry" />
        </mxCell>
        <mxCell id="_plOYLPViJ4alJlIMXHO-26" value="1..*" style="text;html=1;align=center;verticalAlign=middle;resizable=0;points=[];autosize=1;strokeColor=none;fillColor=none;" vertex="1" parent="WIyWlLk6GJQsqaUBKTNV-1">
          <mxGeometry x="710" y="225" width="40" height="30" as="geometry" />
        </mxCell>
        <mxCell id="_plOYLPViJ4alJlIMXHO-27" value="1" style="text;html=1;align=center;verticalAlign=middle;resizable=0;points=[];autosize=1;strokeColor=none;fillColor=none;" vertex="1" parent="WIyWlLk6GJQsqaUBKTNV-1">
          <mxGeometry x="655" y="365" width="30" height="30" as="geometry" />
        </mxCell>
        <mxCell id="_plOYLPViJ4alJlIMXHO-28" value="1" style="text;html=1;align=center;verticalAlign=middle;resizable=0;points=[];autosize=1;strokeColor=none;fillColor=none;" vertex="1" parent="WIyWlLk6GJQsqaUBKTNV-1">
          <mxGeometry x="555" y="305" width="30" height="30" as="geometry" />
        </mxCell>
        <mxCell id="_plOYLPViJ4alJlIMXHO-29" value="1" style="text;html=1;align=center;verticalAlign=middle;resizable=0;points=[];autosize=1;strokeColor=none;fillColor=none;" vertex="1" parent="WIyWlLk6GJQsqaUBKTNV-1">
          <mxGeometry x="715" y="305" width="30" height="30" as="geometry" />
        </mxCell>
        <mxCell id="_plOYLPViJ4alJlIMXHO-30" value="has" style="text;html=1;align=center;verticalAlign=middle;resizable=0;points=[];autosize=1;strokeColor=none;fillColor=none;" vertex="1" parent="WIyWlLk6GJQsqaUBKTNV-1">
          <mxGeometry x="310" y="135" width="40" height="30" as="geometry" />
        </mxCell>
        <mxCell id="_plOYLPViJ4alJlIMXHO-31" value="has" style="text;html=1;align=center;verticalAlign=middle;resizable=0;points=[];autosize=1;strokeColor=none;fillColor=none;" vertex="1" parent="WIyWlLk6GJQsqaUBKTNV-1">
          <mxGeometry x="350" y="195" width="40" height="30" as="geometry" />
        </mxCell>
        <mxCell id="_plOYLPViJ4alJlIMXHO-32" value="has" style="text;html=1;align=center;verticalAlign=middle;resizable=0;points=[];autosize=1;strokeColor=none;fillColor=none;" vertex="1" parent="WIyWlLk6GJQsqaUBKTNV-1">
          <mxGeometry x="440" y="385" width="40" height="30" as="geometry" />
        </mxCell>
        <mxCell id="_plOYLPViJ4alJlIMXHO-33" value="has" style="text;html=1;align=center;verticalAlign=middle;resizable=0;points=[];autosize=1;strokeColor=none;fillColor=none;" vertex="1" parent="WIyWlLk6GJQsqaUBKTNV-1">
          <mxGeometry x="620" y="315" width="40" height="30" as="geometry" />
        </mxCell>
        <mxCell id="_plOYLPViJ4alJlIMXHO-34" value="has" style="text;html=1;align=center;verticalAlign=middle;resizable=0;points=[];autosize=1;strokeColor=none;fillColor=none;" vertex="1" parent="WIyWlLk6GJQsqaUBKTNV-1">
          <mxGeometry x="510" y="135" width="40" height="30" as="geometry" />
        </mxCell>
        <mxCell id="_plOYLPViJ4alJlIMXHO-35" value="has" style="text;html=1;align=center;verticalAlign=middle;resizable=0;points=[];autosize=1;strokeColor=none;fillColor=none;" vertex="1" parent="WIyWlLk6GJQsqaUBKTNV-1">
          <mxGeometry x="670" y="195" width="40" height="30" as="geometry" />
        </mxCell>
      </root>
    </mxGraphModel>
  </diagram>
</mxfile>
